# xmcd
# Track frame offsets:
# 183
# 14650
# 38745
# 62100
# 83870
# 101235
# 116023
# 150375
# 175265
#
# Disc length: 2780 seconds
# Revision: 0
# Processed by: cddbd v1.4PL0 Copyright (c) Steve Scherf et al.
# Submitted via: VisiTrax 2.9.5.181 - For more info visit www.synapsa.com
#
DISCID=700ada09
DTITLE=B. B. King - Kansas City, 1972
DYEAR=1972
DGENRE=Blues
TTITLE0=Introduction
TTITLE1=The Trill Is Gone
TTITLE2=Sweet Little Angel
TTITLE3=Nobdy Loves Me But My Mother
TTITLE4=Guess Who
TTITLE5=King´s Shuffle
TTITLE6=Outside Help
TTITLE7=I´ve Got A Mind To Give Up Living
TTITLE8=Ain´t Nobody Home
EXTD=
EXTT0=
EXTT1=
EXTT2=
EXTT3=
EXTT4=
EXTT5=
EXTT6=
EXTT7=
EXTT8=
PLAYORDER=
